<mxfile host="Electron" modified="2024-04-30T17:28:10.202Z" agent="Mozilla/5.0 (Windows NT 10.0; Win64; x64) AppleWebKit/537.36 (KHTML, like Gecko) draw.io/24.2.5 Chrome/120.0.6099.109 Electron/28.1.0 Safari/537.36" etag="-jXWBvVnibWwZuIxNjtn" version="24.2.5" type="device">
  <diagram name="Page-1" id="rxdMIFF4QSZ6s4MxIWWF">
    <mxGraphModel dx="6160" dy="2207" grid="0" gridSize="10" guides="1" tooltips="1" connect="1" arrows="1" fold="1" page="1" pageScale="1" pageWidth="600" pageHeight="900" math="0" shadow="0">
      <root>
        <mxCell id="0" />
        <mxCell id="1" parent="0" />
        <mxCell id="jO-1gXQbFEy_2yiJFidG-2" value="&lt;font face=&quot;Tahoma&quot; style=&quot;font-size: 18px;&quot;&gt;Passenger Profile Dimension&lt;/font&gt;" style="swimlane;html=1;startSize=23;verticalAlign=bottom;labelBorderColor=none;fillColor=#dae8fc;strokeColor=#6c8ebf;swimlaneFillColor=default;" vertex="1" parent="1">
          <mxGeometry x="-696" y="1861" width="280" height="240" as="geometry" />
        </mxCell>
        <mxCell id="jO-1gXQbFEy_2yiJFidG-3" value="&lt;div style=&quot;&quot;&gt;&lt;span style=&quot;background-color: initial; font-size: 18px;&quot;&gt;&lt;font face=&quot;Tahoma&quot;&gt;Passenger Profile Key (SK)&amp;nbsp;&lt;/font&gt;&lt;/span&gt;&lt;/div&gt;&lt;font face=&quot;EAJwP0S1NvUOIz2sHdJX&quot; style=&quot;font-size: 18px;&quot;&gt;&lt;div style=&quot;&quot;&gt;&lt;span style=&quot;white-space-collapse: preserve; border: 0px solid rgb(227, 227, 227); box-sizing: border-box; --tw-border-spacing-x: 0; --tw-border-spacing-y: 0; --tw-translate-x: 0; --tw-translate-y: 0; --tw-rotate: 0; --tw-skew-x: 0; --tw-skew-y: 0; --tw-scale-x: 1; --tw-scale-y: 1; --tw-pan-x: ; --tw-pan-y: ; --tw-pinch-zoom: ; --tw-scroll-snap-strictness: proximity; --tw-gradient-from-position: ; --tw-gradient-via-position: ; --tw-gradient-to-position: ; --tw-ordinal: ; --tw-slashed-zero: ; --tw-numeric-figure: ; --tw-numeric-spacing: ; --tw-numeric-fraction: ; --tw-ring-inset: ; --tw-ring-offset-width: 0px; --tw-ring-offset-color: #fff; --tw-ring-color: rgba(69,89,164,.5); --tw-ring-offset-shadow: 0 0 transparent; --tw-ring-shadow: 0 0 transparent; --tw-shadow: 0 0 transparent; --tw-shadow-colored: 0 0 transparent; --tw-blur: ; --tw-brightness: ; --tw-contrast: ; --tw-grayscale: ; --tw-hue-rotate: ; --tw-invert: ; --tw-saturate: ; --tw-sepia: ; --tw-drop-shadow: ; --tw-backdrop-blur: ; --tw-backdrop-brightness: ; --tw-backdrop-contrast: ; --tw-backdrop-grayscale: ; --tw-backdrop-hue-rotate: ; --tw-backdrop-invert: ; --tw-backdrop-opacity: ; --tw-backdrop-saturate: ; --tw-backdrop-sepia: ; --tw-contain-size: ; --tw-contain-layout: ; --tw-contain-paint: ; --tw-contain-style: ; color: rgb(13, 13, 13); margin-top: 1.25em; margin-bottom: 1.25em; background-color: rgb(255, 255, 255);&quot;&gt;Membership &lt;/span&gt;&lt;span style=&quot;background-color: initial;&quot;&gt;&amp;nbsp;Tier&lt;/span&gt;&lt;/div&gt;&lt;span style=&quot;background-color: initial;&quot;&gt;&lt;div style=&quot;&quot;&gt;&lt;span style=&quot;background-color: initial;&quot;&gt;Home Airport&lt;/span&gt;&lt;/div&gt;&lt;/span&gt;&lt;span style=&quot;background-color: initial;&quot;&gt;&lt;div style=&quot;&quot;&gt;&lt;span style=&quot;background-color: initial;&quot;&gt;Club Membership Status&lt;/span&gt;&lt;/div&gt;&lt;/span&gt;&lt;span style=&quot;background-color: initial;&quot;&gt;&lt;div style=&quot;&quot;&gt;&lt;span style=&quot;background-color: initial;&quot;&gt;Lifetime Mileage Tier&lt;/span&gt;&lt;/div&gt;&lt;/span&gt;&lt;span style=&quot;background-color: initial;&quot;&gt;&lt;div style=&quot;&quot;&gt;&lt;span style=&quot;background-color: initial;&quot;&gt;frequent flyer status&lt;/span&gt;&lt;/div&gt;&lt;/span&gt;&lt;/font&gt;" style="text;html=1;strokeColor=none;fillColor=none;align=center;verticalAlign=middle;whiteSpace=wrap;rounded=0;" vertex="1" parent="jO-1gXQbFEy_2yiJFidG-2">
          <mxGeometry x="10" y="50" width="260" height="150" as="geometry" />
        </mxCell>
        <mxCell id="jO-1gXQbFEy_2yiJFidG-43" style="edgeStyle=orthogonalEdgeStyle;rounded=0;orthogonalLoop=1;jettySize=auto;html=1;entryX=1;entryY=0.25;entryDx=0;entryDy=0;" edge="1" parent="1" source="jO-1gXQbFEy_2yiJFidG-5" target="jO-1gXQbFEy_2yiJFidG-29">
          <mxGeometry relative="1" as="geometry" />
        </mxCell>
        <mxCell id="jO-1gXQbFEy_2yiJFidG-5" value="&lt;font style=&quot;font-size: 20px;&quot;&gt;&lt;font style=&quot;font-size: 20px;&quot;&gt;Time&amp;nbsp;&lt;/font&gt;&lt;font style=&quot;font-size: 20px;&quot;&gt;Dimension&amp;nbsp;&lt;/font&gt;&lt;/font&gt;" style="swimlane;whiteSpace=wrap;html=1;fillColor=#dae8fc;strokeColor=#6c8ebf;swimlaneFillColor=default;" vertex="1" parent="1">
          <mxGeometry x="1401" y="1622" width="280" height="270" as="geometry" />
        </mxCell>
        <mxCell id="jO-1gXQbFEy_2yiJFidG-6" value="&lt;div style=&quot;text-align: left; font-size: 20px;&quot;&gt;&lt;font style=&quot;font-size: 20px;&quot;&gt;&lt;font style=&quot;font-size: 20px;&quot; face=&quot;Tahoma&quot;&gt;&lt;br&gt;&lt;span style=&quot;background-color: initial;&quot;&gt;Time (PK)&lt;/span&gt;&lt;br&gt;&lt;span style=&quot;background-color: initial;&quot;&gt;Time Id&lt;/span&gt;&lt;br&gt;&lt;span style=&quot;background-color: initial;&quot;&gt;Hour&lt;/span&gt;&lt;br&gt;&lt;span style=&quot;background-color: initial;&quot;&gt;Minute&lt;/span&gt;&lt;br&gt;&lt;span style=&quot;background-color: initial;&quot;&gt;DaytimeName&lt;/span&gt;&lt;br&gt;&lt;span style=&quot;background-color: initial;&quot;&gt;Shifts&lt;/span&gt;&lt;br&gt;&lt;span style=&quot;background-color: initial;&quot;&gt;DayNight&lt;/span&gt;&lt;/font&gt;&lt;br&gt;&lt;/font&gt;&lt;/div&gt;&lt;font style=&quot;font-size: 20px;&quot;&gt;&lt;font style=&quot;font-size: 20px;&quot;&gt;&lt;div style=&quot;text-align: left;&quot;&gt;&lt;div&gt;&lt;br&gt;&lt;/div&gt;&lt;/div&gt;&lt;/font&gt;&lt;/font&gt;" style="text;html=1;align=center;verticalAlign=middle;resizable=0;points=[];autosize=1;strokeColor=none;fillColor=none;" vertex="1" parent="jO-1gXQbFEy_2yiJFidG-5">
          <mxGeometry x="65" y="10" width="150" height="240" as="geometry" />
        </mxCell>
        <mxCell id="jO-1gXQbFEy_2yiJFidG-61" style="edgeStyle=entityRelationEdgeStyle;rounded=0;orthogonalLoop=1;jettySize=auto;html=1;entryX=1;entryY=1;entryDx=0;entryDy=0;" edge="1" parent="1" source="jO-1gXQbFEy_2yiJFidG-7" target="jO-1gXQbFEy_2yiJFidG-29">
          <mxGeometry relative="1" as="geometry" />
        </mxCell>
        <mxCell id="jO-1gXQbFEy_2yiJFidG-7" value="&lt;b style=&quot;&quot;&gt;&lt;font style=&quot;font-size: 16px;&quot;&gt;Passenger&lt;/font&gt;&lt;/b&gt;" style="swimlane;whiteSpace=wrap;html=1;swimlaneFillColor=default;fillColor=#dae8fc;strokeColor=#6c8ebf;" vertex="1" parent="1">
          <mxGeometry x="862" y="2324" width="280" height="280" as="geometry" />
        </mxCell>
        <mxCell id="jO-1gXQbFEy_2yiJFidG-8" value="&lt;font face=&quot;Tahoma&quot;&gt;&lt;span style=&quot;font-size: 18px; border: 0px solid rgb(227, 227, 227); box-sizing: border-box; --tw-border-spacing-x: 0; --tw-border-spacing-y: 0; --tw-translate-x: 0; --tw-translate-y: 0; --tw-rotate: 0; --tw-skew-x: 0; --tw-skew-y: 0; --tw-scale-x: 1; --tw-scale-y: 1; --tw-pan-x: ; --tw-pan-y: ; --tw-pinch-zoom: ; --tw-scroll-snap-strictness: proximity; --tw-gradient-from-position: ; --tw-gradient-via-position: ; --tw-gradient-to-position: ; --tw-ordinal: ; --tw-slashed-zero: ; --tw-numeric-figure: ; --tw-numeric-spacing: ; --tw-numeric-fraction: ; --tw-ring-inset: ; --tw-ring-offset-width: 0px; --tw-ring-offset-color: #fff; --tw-ring-color: rgba(69,89,164,.5); --tw-ring-offset-shadow: 0 0 transparent; --tw-ring-shadow: 0 0 transparent; --tw-shadow: 0 0 transparent; --tw-shadow-colored: 0 0 transparent; --tw-blur: ; --tw-brightness: ; --tw-contrast: ; --tw-grayscale: ; --tw-hue-rotate: ; --tw-invert: ; --tw-saturate: ; --tw-sepia: ; --tw-drop-shadow: ; --tw-backdrop-blur: ; --tw-backdrop-brightness: ; --tw-backdrop-contrast: ; --tw-backdrop-grayscale: ; --tw-backdrop-hue-rotate: ; --tw-backdrop-invert: ; --tw-backdrop-opacity: ; --tw-backdrop-saturate: ; --tw-backdrop-sepia: ; --tw-contain-size: ; --tw-contain-layout: ; --tw-contain-paint: ; --tw-contain-style: ; color: rgb(13, 13, 13); margin-top: 1.25em; margin-bottom: 1.25em; text-align: left; white-space-collapse: preserve; background-color: rgb(255, 255, 255);&quot;&gt;Passenger key &lt;/span&gt;&lt;span style=&quot;font-size: 18px; text-wrap: nowrap; background-color: initial;&quot;&gt;(SK)&lt;/span&gt;&lt;br&gt;&lt;span style=&quot;background-color: rgb(255, 255, 255); color: rgb(13, 13, 13); text-align: left; white-space-collapse: preserve; font-size: 18px;&quot;&gt;FirstName &lt;/span&gt;&lt;br&gt;&lt;span style=&quot;background-color: rgb(255, 255, 255); color: rgb(13, 13, 13); text-align: left; white-space-collapse: preserve; font-size: 18px;&quot;&gt;LastName&lt;/span&gt;&lt;br&gt;&lt;span style=&quot;background-color: rgb(255, 255, 255); color: rgb(13, 13, 13); text-align: left; white-space-collapse: preserve; font-size: 18px;&quot;&gt;Gender&lt;/span&gt;&lt;br&gt;&lt;span style=&quot;background-color: rgb(255, 255, 255); color: rgb(13, 13, 13); text-align: left; white-space-collapse: preserve; font-size: 18px;&quot;&gt;DateOfBirth&lt;/span&gt;&lt;br&gt;&lt;span style=&quot;background-color: rgb(255, 255, 255); color: rgb(13, 13, 13); text-align: left; white-space-collapse: preserve; font-size: 18px;&quot;&gt;Address&lt;/span&gt;&lt;br&gt;&lt;span style=&quot;white-space: pre; font-size: 18px; color: rgb(13, 13, 13); background-color: rgb(255, 255, 255); text-align: left;&quot;&gt;INCOME_LEVEL&lt;/span&gt;&lt;br&gt;&lt;span style=&quot;white-space: pre; font-size: 18px; color: rgb(13, 13, 13); background-color: rgb(255, 255, 255); text-align: left;&quot;&gt;MARITAL_STATUS&lt;/span&gt;&lt;br&gt;&lt;span style=&quot;background-color: rgb(255, 255, 255); color: rgb(13, 13, 13); text-align: left; white-space-collapse: preserve; font-size: 18px;&quot;&gt;SpecialNeeds&lt;/span&gt;&lt;br&gt;&lt;span style=&quot;background-color: rgb(255, 255, 255); color: rgb(13, 13, 13); text-align: left; white-space-collapse: preserve; font-size: 18px;&quot;&gt;Nationality&lt;/span&gt;&lt;br&gt;&lt;span style=&quot;background-color: rgb(255, 255, 255); color: rgb(13, 13, 13); text-align: left; white-space-collapse: preserve; font-size: 18px;&quot;&gt;Email&lt;/span&gt;&lt;/font&gt;" style="text;html=1;align=center;verticalAlign=middle;whiteSpace=wrap;rounded=0;" vertex="1" parent="jO-1gXQbFEy_2yiJFidG-7">
          <mxGeometry y="40" width="230" height="230" as="geometry" />
        </mxCell>
        <mxCell id="jO-1gXQbFEy_2yiJFidG-9" style="edgeStyle=orthogonalEdgeStyle;rounded=0;orthogonalLoop=1;jettySize=auto;html=1;exitX=0.5;exitY=1;exitDx=0;exitDy=0;entryX=1;entryY=0.75;entryDx=0;entryDy=0;" edge="1" parent="1" source="jO-1gXQbFEy_2yiJFidG-10" target="jO-1gXQbFEy_2yiJFidG-29">
          <mxGeometry relative="1" as="geometry" />
        </mxCell>
        <mxCell id="jO-1gXQbFEy_2yiJFidG-10" value="&lt;font style=&quot;font-size: 22px;&quot;&gt;Date Dimension&lt;/font&gt;" style="swimlane;whiteSpace=wrap;html=1;fillColor=#dae8fc;strokeColor=#6c8ebf;swimlaneFillColor=default;" vertex="1" parent="1">
          <mxGeometry x="770" y="657" width="280" height="580" as="geometry" />
        </mxCell>
        <mxCell id="jO-1gXQbFEy_2yiJFidG-11" value="&lt;div style=&quot;text-align: center; font-size: 18px;&quot;&gt;&lt;span style=&quot;background-color: initial;&quot;&gt;&lt;font face=&quot;Tahoma&quot; style=&quot;font-size: 18px;&quot;&gt;Date Key (PK)&lt;/font&gt;&lt;/span&gt;&lt;/div&gt;&lt;font face=&quot;E_Vse2sqt-GHe94hN0gW&quot; style=&quot;font-size: 18px;&quot;&gt;&lt;span style=&quot;background-color: initial;&quot;&gt;&lt;div style=&quot;text-align: center;&quot;&gt;&lt;span style=&quot;background-color: initial;&quot;&gt;Date&lt;/span&gt;&lt;/div&gt;&lt;/span&gt;&lt;span style=&quot;background-color: initial;&quot;&gt;&lt;div style=&quot;text-align: center;&quot;&gt;&lt;span style=&quot;background-color: initial;&quot;&gt;Day of the Week&lt;/span&gt;&lt;/div&gt;&lt;/span&gt;&lt;span style=&quot;background-color: initial;&quot;&gt;&lt;div style=&quot;text-align: center;&quot;&gt;&lt;span style=&quot;background-color: initial;&quot;&gt;Day of the Month&lt;/span&gt;&lt;/div&gt;&lt;/span&gt;&lt;span style=&quot;background-color: initial;&quot;&gt;&lt;div style=&quot;text-align: center;&quot;&gt;&lt;span style=&quot;background-color: initial;&quot;&gt;Day of the Year&lt;/span&gt;&lt;/div&gt;&lt;/span&gt;&lt;span style=&quot;background-color: initial;&quot;&gt;&lt;div style=&quot;text-align: center;&quot;&gt;&lt;span style=&quot;background-color: initial;&quot;&gt;Week Number&lt;/span&gt;&lt;/div&gt;&lt;/span&gt;&lt;span style=&quot;background-color: initial;&quot;&gt;&lt;div style=&quot;text-align: center;&quot;&gt;&lt;span style=&quot;background-color: initial;&quot;&gt;Month&lt;/span&gt;&lt;/div&gt;&lt;/span&gt;&lt;span style=&quot;background-color: initial;&quot;&gt;&lt;div style=&quot;text-align: center;&quot;&gt;&lt;span style=&quot;background-color: initial;&quot;&gt;Quarter&lt;/span&gt;&lt;/div&gt;&lt;/span&gt;&lt;span style=&quot;background-color: initial;&quot;&gt;&lt;div style=&quot;text-align: center;&quot;&gt;&lt;span style=&quot;background-color: initial;&quot;&gt;Year&lt;/span&gt;&lt;/div&gt;&lt;/span&gt;&lt;span style=&quot;background-color: initial;&quot;&gt;&lt;div style=&quot;text-align: center;&quot;&gt;&lt;span style=&quot;background-color: initial;&quot;&gt;Holiday Indicator&lt;/span&gt;&lt;/div&gt;&lt;/span&gt;&lt;span style=&quot;background-color: initial;&quot;&gt;&lt;div style=&quot;text-align: center;&quot;&gt;&lt;span style=&quot;background-color: initial;&quot;&gt;Weekday/Weekend Indicator&lt;/span&gt;&lt;/div&gt;&lt;/span&gt;&lt;span style=&quot;background-color: initial;&quot;&gt;&lt;div style=&quot;text-align: center;&quot;&gt;&lt;span style=&quot;background-color: initial;&quot;&gt;Season&lt;/span&gt;&lt;/div&gt;&lt;/span&gt;&lt;span style=&quot;background-color: initial;&quot;&gt;&lt;div style=&quot;text-align: center;&quot;&gt;&lt;span style=&quot;background-color: initial;&quot;&gt;Fiscal Period&lt;/span&gt;&lt;/div&gt;&lt;/span&gt;&lt;span style=&quot;background-color: initial;&quot;&gt;&lt;div style=&quot;text-align: center;&quot;&gt;&lt;span style=&quot;background-color: initial;&quot;&gt;Fiscal Year&lt;/span&gt;&lt;/div&gt;&lt;/span&gt;&lt;span style=&quot;background-color: initial;&quot;&gt;&lt;div style=&quot;text-align: center;&quot;&gt;&lt;span style=&quot;background-color: initial;&quot;&gt;Financial Period&lt;/span&gt;&lt;/div&gt;&lt;/span&gt;&lt;span style=&quot;background-color: initial;&quot;&gt;&lt;div style=&quot;text-align: center;&quot;&gt;&lt;span style=&quot;background-color: initial;&quot;&gt;Financial Year&lt;/span&gt;&lt;/div&gt;&lt;/span&gt;&lt;span style=&quot;background-color: initial;&quot;&gt;&lt;div style=&quot;text-align: center;&quot;&gt;&lt;span style=&quot;background-color: initial;&quot;&gt;Quarter Start/End Dates&lt;/span&gt;&lt;/div&gt;&lt;/span&gt;&lt;span style=&quot;background-color: initial;&quot;&gt;&lt;div style=&quot;text-align: center;&quot;&gt;&lt;span style=&quot;background-color: initial;&quot;&gt;Month Start/End Dates&lt;/span&gt;&lt;/div&gt;&lt;/span&gt;&lt;span style=&quot;background-color: initial;&quot;&gt;&lt;div style=&quot;text-align: center;&quot;&gt;&lt;span style=&quot;background-color: initial;&quot;&gt;Week Start/End Dates&lt;/span&gt;&lt;/div&gt;&lt;/span&gt;&lt;span style=&quot;background-color: initial;&quot;&gt;&lt;div style=&quot;text-align: center;&quot;&gt;&lt;span style=&quot;background-color: initial;&quot;&gt;Day Type&lt;/span&gt;&lt;/div&gt;&lt;/span&gt;&lt;span style=&quot;background-color: initial;&quot;&gt;&lt;div style=&quot;text-align: center;&quot;&gt;&lt;span style=&quot;background-color: initial;&quot;&gt;Leap Year Indicator&lt;/span&gt;&lt;/div&gt;&lt;/span&gt;&lt;/font&gt;" style="text;html=1;strokeColor=none;fillColor=none;align=left;verticalAlign=middle;whiteSpace=wrap;rounded=0;" vertex="1" parent="jO-1gXQbFEy_2yiJFidG-10">
          <mxGeometry x="30" y="120" width="215" height="360" as="geometry" />
        </mxCell>
        <mxCell id="jO-1gXQbFEy_2yiJFidG-12" style="edgeStyle=orthogonalEdgeStyle;rounded=0;orthogonalLoop=1;jettySize=auto;html=1;entryX=0;entryY=0.25;entryDx=0;entryDy=0;" edge="1" parent="1" source="jO-1gXQbFEy_2yiJFidG-13" target="jO-1gXQbFEy_2yiJFidG-29">
          <mxGeometry relative="1" as="geometry">
            <Array as="points">
              <mxPoint y="1080" />
              <mxPoint y="1468" />
            </Array>
          </mxGeometry>
        </mxCell>
        <mxCell id="jO-1gXQbFEy_2yiJFidG-13" value="&lt;font style=&quot;font-size: 20px;&quot;&gt;Aircraft Dimension&amp;nbsp;&lt;/font&gt;" style="swimlane;whiteSpace=wrap;html=1;startSize=23;fontSize=14;swimlaneFillColor=default;fillColor=#dae8fc;strokeColor=#6c8ebf;" vertex="1" parent="1">
          <mxGeometry x="-395" y="1180" width="267" height="260" as="geometry" />
        </mxCell>
        <mxCell id="jO-1gXQbFEy_2yiJFidG-14" value="&lt;div style=&quot;font-size: 18px;&quot;&gt;&lt;div style=&quot;&quot;&gt;&lt;div style=&quot;&quot;&gt;Aircraft Key (SK)&lt;/div&gt;&lt;div style=&quot;&quot;&gt;Aircraft Id&lt;/div&gt;&lt;div style=&quot;&quot;&gt;Aircraft Type&lt;/div&gt;&lt;div style=&quot;&quot;&gt;Manufacturer&lt;/div&gt;&lt;div style=&quot;&quot;&gt;Model&lt;/div&gt;&lt;div style=&quot;&quot;&gt;Capacity&lt;/div&gt;&lt;div style=&quot;&quot;&gt;Year of Manufacture&lt;/div&gt;&lt;div style=&quot;&quot;&gt;Carrying Weight&lt;/div&gt;&lt;div style=&quot;&quot;&gt;Fuel Consumption&lt;/div&gt;&lt;div style=&quot;&quot;&gt;&lt;br style=&quot;&quot;&gt;&lt;/div&gt;&lt;/div&gt;&lt;/div&gt;" style="text;html=1;align=center;verticalAlign=middle;resizable=0;points=[];autosize=1;fontSize=14;" vertex="1" parent="jO-1gXQbFEy_2yiJFidG-13">
          <mxGeometry x="43.5" y="38" width="180" height="230" as="geometry" />
        </mxCell>
        <mxCell id="jO-1gXQbFEy_2yiJFidG-63" style="edgeStyle=orthogonalEdgeStyle;rounded=0;orthogonalLoop=1;jettySize=auto;html=1;entryX=0;entryY=0.5;entryDx=0;entryDy=0;" edge="1" parent="1" source="jO-1gXQbFEy_2yiJFidG-16" target="jO-1gXQbFEy_2yiJFidG-29">
          <mxGeometry relative="1" as="geometry" />
        </mxCell>
        <mxCell id="jO-1gXQbFEy_2yiJFidG-16" value="&lt;font face=&quot;Tahoma&quot; style=&quot;font-size: 20px;&quot;&gt;&lt;font style=&quot;font-size: 20px;&quot;&gt;Airport&amp;nbsp;&lt;/font&gt;Dimension&amp;nbsp;&lt;/font&gt;" style="swimlane;whiteSpace=wrap;html=1;fontSize=14;fillColor=#dae8fc;strokeColor=#6c8ebf;swimlaneFillColor=default;" vertex="1" parent="1">
          <mxGeometry x="-925" y="1330" width="280" height="369.75" as="geometry" />
        </mxCell>
        <mxCell id="jO-1gXQbFEy_2yiJFidG-17" value="&lt;div style=&quot;font-size: 18px;&quot;&gt;&lt;div style=&quot;&quot;&gt;&lt;font style=&quot;font-size: 18px;&quot;&gt;Airport Key (SK)&lt;/font&gt;&lt;/div&gt;&lt;div style=&quot;&quot;&gt;&lt;font style=&quot;font-size: 18px;&quot;&gt;Airport Id&lt;/font&gt;&lt;/div&gt;&lt;div style=&quot;&quot;&gt;&lt;font style=&quot;font-size: 18px;&quot;&gt;Airport Name&lt;/font&gt;&lt;/div&gt;&lt;div style=&quot;&quot;&gt;&lt;font style=&quot;font-size: 18px;&quot;&gt;Country&lt;/font&gt;&lt;/div&gt;&lt;div style=&quot;&quot;&gt;&lt;font style=&quot;font-size: 18px;&quot;&gt;City&lt;/font&gt;&lt;/div&gt;&lt;div style=&quot;&quot;&gt;&lt;font style=&quot;font-size: 18px;&quot;&gt;Latitude&lt;/font&gt;&lt;/div&gt;&lt;div style=&quot;&quot;&gt;&lt;font style=&quot;font-size: 18px;&quot;&gt;Longitude&lt;/font&gt;&lt;/div&gt;&lt;div style=&quot;&quot;&gt;&lt;font style=&quot;font-size: 18px;&quot;&gt;Region&lt;/font&gt;&lt;/div&gt;&lt;div style=&quot;&quot;&gt;&lt;div style=&quot;&quot;&gt;&lt;font style=&quot;font-size: 18px;&quot;&gt;Number of runways&lt;/font&gt;&lt;/div&gt;&lt;div style=&quot;&quot;&gt;&lt;span style=&quot;&quot;&gt;&lt;font style=&quot;font-size: 18px;&quot;&gt;Terminal count&lt;/font&gt;&lt;/span&gt;&lt;/div&gt;&lt;div style=&quot;&quot;&gt;&lt;span style=&quot;&quot;&gt;&lt;font style=&quot;font-size: 18px;&quot;&gt;Number of gates&lt;/font&gt;&lt;/span&gt;&lt;/div&gt;&lt;div style=&quot;&quot;&gt;&lt;span style=&quot;&quot;&gt;&lt;font style=&quot;font-size: 18px;&quot;&gt;ATC capacity&lt;/font&gt;&lt;/span&gt;&lt;/div&gt;&lt;div style=&quot;&quot;&gt;&lt;span style=&quot;&quot;&gt;&lt;font style=&quot;font-size: 18px;&quot;&gt;Aircraft Parking Stands&lt;/font&gt;&lt;/span&gt;&lt;/div&gt;&lt;div style=&quot;&quot;&gt;&lt;span style=&quot;&quot;&gt;&lt;font style=&quot;font-size: 18px;&quot;&gt;Guest Capacity&lt;/font&gt;&lt;/span&gt;&lt;/div&gt;&lt;/div&gt;&lt;div style=&quot;&quot;&gt;&lt;br style=&quot;&quot;&gt;&lt;/div&gt;&lt;/div&gt;" style="text;html=1;align=center;verticalAlign=middle;resizable=0;points=[];autosize=1;strokeColor=none;fillColor=none;fontSize=14;" vertex="1" parent="jO-1gXQbFEy_2yiJFidG-16">
          <mxGeometry x="35" y="29.75" width="210" height="340" as="geometry" />
        </mxCell>
        <mxCell id="jO-1gXQbFEy_2yiJFidG-19" value="&lt;font face=&quot;Tahoma&quot; style=&quot;font-size: 18px;&quot;&gt;City-pair Route Dimension&lt;/font&gt;" style="swimlane;whiteSpace=wrap;html=1;fontSize=14;fillColor=#dae8fc;strokeColor=#6c8ebf;swimlaneFillColor=default;" vertex="1" parent="1">
          <mxGeometry x="-21" y="2098" width="280" height="230" as="geometry" />
        </mxCell>
        <mxCell id="jO-1gXQbFEy_2yiJFidG-20" value="&lt;div style=&quot;font-size: 18px;&quot;&gt;&lt;font face=&quot;Tahoma&quot; style=&quot;font-size: 18px;&quot;&gt;City-Pair Route Key (SK)&lt;/font&gt;&lt;/div&gt;&lt;div style=&quot;font-size: 18px;&quot;&gt;&lt;font face=&quot;LK2kZPiWcbJKduJd0ah_&quot; style=&quot;font-size: 18px;&quot;&gt;Directional Route Name&lt;/font&gt;&lt;/div&gt;&lt;div style=&quot;font-size: 18px;&quot;&gt;&lt;font face=&quot;LK2kZPiWcbJKduJd0ah_&quot; style=&quot;font-size: 18px;&quot;&gt;Non-Directional Route Name&lt;/font&gt;&lt;/div&gt;&lt;div style=&quot;font-size: 18px;&quot;&gt;&lt;font face=&quot;LK2kZPiWcbJKduJd0ah_&quot; style=&quot;font-size: 18px;&quot;&gt;Route Distance in Miles&amp;nbsp;&lt;/font&gt;&lt;/div&gt;&lt;div style=&quot;font-size: 18px;&quot;&gt;&lt;font face=&quot;LK2kZPiWcbJKduJd0ah_&quot; style=&quot;font-size: 18px;&quot;&gt;Route Distance Band&amp;nbsp;&lt;/font&gt;&lt;/div&gt;&lt;div style=&quot;font-size: 18px;&quot;&gt;&lt;font face=&quot;LK2kZPiWcbJKduJd0ah_&quot; style=&quot;font-size: 18px;&quot;&gt;Dom-Intl Indicator&amp;nbsp;&lt;/font&gt;&lt;/div&gt;&lt;div style=&quot;font-size: 18px;&quot;&gt;&lt;font face=&quot;LK2kZPiWcbJKduJd0ah_&quot; style=&quot;font-size: 18px;&quot;&gt;Transocean Indicator&lt;/font&gt;&lt;/div&gt;" style="text;html=1;strokeColor=none;fillColor=none;align=center;verticalAlign=middle;whiteSpace=wrap;rounded=0;fontSize=14;" vertex="1" parent="jO-1gXQbFEy_2yiJFidG-19">
          <mxGeometry y="55" width="291" height="120" as="geometry" />
        </mxCell>
        <mxCell id="jO-1gXQbFEy_2yiJFidG-21" value="&lt;font face=&quot;Tahoma&quot; style=&quot;font-size: 18px;&quot;&gt;&lt;font style=&quot;font-size: 18px;&quot;&gt; Class of Service&amp;nbsp;&lt;/font&gt;&lt;font style=&quot;font-size: 18px;&quot;&gt;Dimension&amp;nbsp;&lt;/font&gt;&lt;/font&gt;" style="swimlane;whiteSpace=wrap;html=1;fontSize=14;fillColor=#dae8fc;strokeColor=#6c8ebf;swimlaneFillColor=default;" vertex="1" parent="1">
          <mxGeometry x="289" y="867" width="280" height="100" as="geometry" />
        </mxCell>
        <mxCell id="jO-1gXQbFEy_2yiJFidG-22" value="&lt;div style=&quot;text-align: left; font-size: 18px;&quot;&gt;&lt;font face=&quot;Tahoma&quot; style=&quot;font-size: 18px;&quot;&gt;Class of Service Key (SK)&lt;br style=&quot;&quot;&gt;&lt;/font&gt;&lt;/div&gt;&lt;div style=&quot;text-align: left; font-size: 18px;&quot;&gt;&lt;font face=&quot;nuzYPl4-xW28gegS3qoj&quot; style=&quot;font-size: 18px;&quot;&gt;Class Purchased&lt;/font&gt;&lt;/div&gt;" style="text;html=1;align=center;verticalAlign=middle;resizable=0;points=[];autosize=1;strokeColor=none;fillColor=none;fontSize=14;" vertex="1" parent="jO-1gXQbFEy_2yiJFidG-21">
          <mxGeometry x="25" y="30" width="220" height="60" as="geometry" />
        </mxCell>
        <mxCell id="jO-1gXQbFEy_2yiJFidG-58" style="edgeStyle=orthogonalEdgeStyle;rounded=0;orthogonalLoop=1;jettySize=auto;html=1;entryX=0.25;entryY=0;entryDx=0;entryDy=0;" edge="1" parent="1" source="jO-1gXQbFEy_2yiJFidG-24" target="jO-1gXQbFEy_2yiJFidG-29">
          <mxGeometry relative="1" as="geometry">
            <Array as="points">
              <mxPoint x="277" y="746" />
              <mxPoint x="277" y="1242" />
              <mxPoint x="340" y="1242" />
            </Array>
          </mxGeometry>
        </mxCell>
        <mxCell id="jO-1gXQbFEy_2yiJFidG-24" value="&lt;font style=&quot;font-size: 18px;&quot;&gt;Booking Channel Dimension&lt;/font&gt;" style="swimlane;whiteSpace=wrap;html=1;fontSize=14;fillColor=#dae8fc;strokeColor=#6c8ebf;swimlaneFillColor=default;" vertex="1" parent="1">
          <mxGeometry x="-247" y="661" width="280" height="170" as="geometry" />
        </mxCell>
        <mxCell id="jO-1gXQbFEy_2yiJFidG-25" value="&lt;font face=&quot;Tahoma&quot; style=&quot;font-size: 18px;&quot;&gt;Booking Channel Key (SK)&lt;br style=&quot;&quot;&gt;Booking Channel ID&lt;br style=&quot;&quot;&gt;Booking Channel Name&lt;br style=&quot;&quot;&gt;Booking Channel Type&lt;br style=&quot;&quot;&gt;Online/Offline Indicator&lt;/font&gt;" style="text;html=1;strokeColor=none;fillColor=none;align=center;verticalAlign=middle;whiteSpace=wrap;rounded=0;fontSize=14;" vertex="1" parent="jO-1gXQbFEy_2yiJFidG-24">
          <mxGeometry x="35" y="45" width="232" height="95" as="geometry" />
        </mxCell>
        <mxCell id="jO-1gXQbFEy_2yiJFidG-51" style="edgeStyle=orthogonalEdgeStyle;rounded=0;orthogonalLoop=1;jettySize=auto;html=1;entryX=1;entryY=0.5;entryDx=0;entryDy=0;" edge="1" parent="1" source="jO-1gXQbFEy_2yiJFidG-27" target="jO-1gXQbFEy_2yiJFidG-29">
          <mxGeometry relative="1" as="geometry" />
        </mxCell>
        <mxCell id="jO-1gXQbFEy_2yiJFidG-27" value="&lt;font face=&quot;Tahoma&quot; style=&quot;font-size: 20px;&quot;&gt;Fare Basis Dimension&lt;/font&gt;" style="swimlane;whiteSpace=wrap;html=1;fontSize=14;fillColor=#dae8fc;strokeColor=#6c8ebf;swimlaneFillColor=default;" vertex="1" parent="1">
          <mxGeometry x="1050" y="1867" width="300" height="325" as="geometry" />
        </mxCell>
        <mxCell id="jO-1gXQbFEy_2yiJFidG-28" value="&lt;div style=&quot;font-size: 18px;&quot;&gt;&lt;font style=&quot;font-size: 18px;&quot; face=&quot;Tahoma&quot;&gt;Fare Basis Key (SK)&lt;/font&gt;&lt;/div&gt;&lt;div style=&quot;font-size: 18px;&quot;&gt;&lt;font style=&quot;font-size: 18px;&quot; face=&quot;P6Zr7QdQVIc0ELt-C0l3&quot;&gt;Fare Basis Code&lt;/font&gt;&lt;/div&gt;&lt;div style=&quot;font-size: 18px;&quot;&gt;&lt;font style=&quot;font-size: 18px;&quot; face=&quot;P6Zr7QdQVIc0ELt-C0l3&quot;&gt;Fare Type&lt;/font&gt;&lt;/div&gt;&lt;div style=&quot;font-size: 18px;&quot;&gt;&lt;font style=&quot;font-size: 18px;&quot; face=&quot;P6Zr7QdQVIc0ELt-C0l3&quot;&gt;Description&lt;/font&gt;&lt;/div&gt;&lt;div style=&quot;font-size: 18px;&quot;&gt;&lt;font style=&quot;font-size: 18px;&quot; face=&quot;P6Zr7QdQVIc0ELt-C0l3&quot;&gt;Advance Purchase Days Requirement&lt;/font&gt;&lt;/div&gt;&lt;div style=&quot;font-size: 18px;&quot;&gt;&lt;font style=&quot;font-size: 18px;&quot; face=&quot;P6Zr7QdQVIc0ELt-C0l3&quot;&gt;Cancellation Penalty&lt;/font&gt;&lt;/div&gt;&lt;div style=&quot;font-size: 18px;&quot;&gt;&lt;font style=&quot;font-size: 18px;&quot; face=&quot;P6Zr7QdQVIc0ELt-C0l3&quot;&gt;Discount Percentage&lt;/font&gt;&lt;/div&gt;&lt;div style=&quot;font-size: 18px;&quot;&gt;&lt;font style=&quot;font-size: 18px;&quot; face=&quot;P6Zr7QdQVIc0ELt-C0l3&quot;&gt;Effective Start Date&lt;/font&gt;&lt;/div&gt;&lt;div style=&quot;font-size: 18px;&quot;&gt;&lt;font style=&quot;font-size: 18px;&quot; face=&quot;P6Zr7QdQVIc0ELt-C0l3&quot;&gt;Effective End Date&lt;/font&gt;&lt;/div&gt;&lt;div style=&quot;font-size: 18px;&quot;&gt;&lt;font style=&quot;font-size: 18px;&quot; face=&quot;P6Zr7QdQVIc0ELt-C0l3&quot;&gt;Applicable Travel Class&lt;/font&gt;&lt;/div&gt;" style="text;html=1;strokeColor=none;fillColor=none;align=center;verticalAlign=middle;whiteSpace=wrap;rounded=0;fontSize=14;" vertex="1" parent="jO-1gXQbFEy_2yiJFidG-27">
          <mxGeometry x="15" y="25" width="290" height="275" as="geometry" />
        </mxCell>
        <mxCell id="jO-1gXQbFEy_2yiJFidG-29" value="&lt;font style=&quot;font-size: 20px;&quot;&gt;Segment Level Flight Activity Fact&lt;/font&gt;" style="swimlane;whiteSpace=wrap;html=1;fontSize=14;swimlaneFillColor=default;fillColor=#ffe6cc;strokeColor=#d79b00;" vertex="1" parent="1">
          <mxGeometry x="240" y="1300" width="400" height="670" as="geometry" />
        </mxCell>
        <mxCell id="jO-1gXQbFEy_2yiJFidG-30" value="&lt;div style=&quot;font-size: 18px;&quot;&gt;&lt;font face=&quot;Tahoma&quot; style=&quot;font-size: 18px;&quot;&gt;&lt;b&gt;Scheduled Departure Date Key (FK)&lt;br style=&quot;&quot;&gt; Scheduled Departure&amp;nbsp;&lt;span style=&quot;background-color: initial;&quot;&gt;Time Key (FK)&lt;/span&gt;&lt;/b&gt;&lt;/font&gt;&lt;/div&gt;&lt;div style=&quot;font-size: 18px;&quot;&gt;&lt;font face=&quot;e0ULMlV7wbky0Q9KVoF6&quot; style=&quot;font-size: 18px;&quot;&gt;&lt;b&gt; Actual Departure Date Key (FK)&lt;br style=&quot;&quot;&gt; Actual Departure Time Key (FK)&lt;/b&gt;&lt;/font&gt;&lt;/div&gt;&lt;div style=&quot;font-size: 18px;&quot;&gt;&lt;font face=&quot;e0ULMlV7wbky0Q9KVoF6&quot; style=&quot;font-size: 18px;&quot;&gt;&lt;b&gt;Passenger Key (FK)&lt;br style=&quot;&quot;&gt; Passenger Profile Key (FK)&lt;br style=&quot;&quot;&gt; Segment Origin Airport Key (FK)&lt;br style=&quot;&quot;&gt; Segment Destination&amp;nbsp;&amp;nbsp;&lt;span style=&quot;background-color: initial;&quot;&gt;Airport Key (FK)&lt;/span&gt;&lt;/b&gt;&lt;/font&gt;&lt;/div&gt;&lt;div style=&quot;font-size: 18px;&quot;&gt;&lt;font face=&quot;e0ULMlV7wbky0Q9KVoF6&quot; style=&quot;font-size: 18px;&quot;&gt;&lt;b&gt; Aircraft Key (FK)&lt;br style=&quot;&quot;&gt; Class of Service Flown Key (FK)&lt;br style=&quot;&quot;&gt; Fare Basis Key (FK)&lt;/b&gt;&lt;/font&gt;&lt;/div&gt;&lt;div style=&quot;font-size: 18px;&quot;&gt;&lt;font face=&quot;e0ULMlV7wbky0Q9KVoF6&quot; style=&quot;font-size: 18px;&quot;&gt;&lt;b&gt;City-pair Route Key (FK)&lt;/b&gt;&lt;/font&gt;&lt;/div&gt;&lt;div style=&quot;font-size: 18px;&quot;&gt;&lt;font face=&quot;e0ULMlV7wbky0Q9KVoF6&quot; style=&quot;font-size: 18px;&quot;&gt;&lt;b&gt;Satisfaction Key (FK)&lt;br style=&quot;&quot;&gt; Booking Channel Key (FK)&lt;/b&gt;&lt;/font&gt;&lt;/div&gt;&lt;div style=&quot;font-size: 18px;&quot;&gt;&lt;font face=&quot;e0ULMlV7wbky0Q9KVoF6&quot; style=&quot;font-size: 18px;&quot;&gt;&lt;b&gt;Confirmation Number (DD)&lt;br style=&quot;&quot;&gt; Ticket Number (DD)&lt;br style=&quot;&quot;&gt; Segment Sequence Number (DD)&lt;br style=&quot;&quot;&gt; Flight Number (DD)&amp;nbsp;&lt;/b&gt;&lt;/font&gt;&lt;/div&gt;&lt;div style=&quot;font-size: 18px;&quot;&gt;&lt;font face=&quot;e0ULMlV7wbky0Q9KVoF6&quot; style=&quot;font-size: 18px;&quot;&gt;&lt;b&gt;&lt;br&gt;&lt;/b&gt;&lt;/font&gt;&lt;/div&gt;&lt;div style=&quot;font-size: 18px;&quot;&gt;&lt;font face=&quot;e0ULMlV7wbky0Q9KVoF6&quot; style=&quot;font-size: 18px;&quot;&gt;&lt;b&gt;Base Fare Revenue&lt;br style=&quot;&quot;&gt; Passenger Facility Charges&amp;nbsp;&lt;/b&gt;&lt;/font&gt;&lt;/div&gt;&lt;div style=&quot;font-size: 18px;&quot;&gt;&lt;font face=&quot;e0ULMlV7wbky0Q9KVoF6&quot; style=&quot;font-size: 18px;&quot;&gt;&lt;b&gt;Airport Tax&lt;br style=&quot;&quot;&gt; Government Tax&lt;br style=&quot;&quot;&gt; Baggage Charges&lt;br style=&quot;&quot;&gt; Upgrade Fees&amp;nbsp;&lt;/b&gt;&lt;/font&gt;&lt;/div&gt;&lt;div style=&quot;font-size: 18px;&quot;&gt;&lt;span style=&quot;background-color: initial;&quot;&gt;&lt;font face=&quot;e0ULMlV7wbky0Q9KVoF6&quot; style=&quot;font-size: 18px;&quot;&gt;&lt;b&gt;Transaction Fees&lt;/b&gt;&lt;/font&gt;&lt;/span&gt;&lt;/div&gt;&lt;div style=&quot;font-size: 18px;&quot;&gt;&lt;font face=&quot;e0ULMlV7wbky0Q9KVoF6&quot; style=&quot;font-size: 18px;&quot;&gt;&lt;b&gt; Segment Miles Flown&lt;/b&gt;&lt;/font&gt;&lt;/div&gt;&lt;div style=&quot;font-size: 18px;&quot;&gt;&lt;font face=&quot;e0ULMlV7wbky0Q9KVoF6&quot; style=&quot;font-size: 18px;&quot;&gt;&lt;b&gt;Segment Miles Earned&lt;/b&gt;&lt;/font&gt;&lt;br style=&quot;font-size: 14px;&quot;&gt;&lt;/div&gt;" style="text;html=1;align=center;verticalAlign=middle;resizable=0;points=[];autosize=1;strokeColor=none;fillColor=none;fontSize=14;fontColor=#141414;" vertex="1" parent="jO-1gXQbFEy_2yiJFidG-29">
          <mxGeometry x="22" y="41" width="341" height="618" as="geometry" />
        </mxCell>
        <mxCell id="jO-1gXQbFEy_2yiJFidG-31" value="" style="line;strokeWidth=1;html=1;fontSize=2;" vertex="1" parent="jO-1gXQbFEy_2yiJFidG-29">
          <mxGeometry x="40.5" y="450" width="332" height="8" as="geometry" />
        </mxCell>
        <mxCell id="jO-1gXQbFEy_2yiJFidG-34" style="edgeStyle=orthogonalEdgeStyle;rounded=0;orthogonalLoop=1;jettySize=auto;html=1;" edge="1" parent="1" source="jO-1gXQbFEy_2yiJFidG-35">
          <mxGeometry relative="1" as="geometry">
            <mxPoint x="640" y="1400" as="targetPoint" />
          </mxGeometry>
        </mxCell>
        <mxCell id="jO-1gXQbFEy_2yiJFidG-35" value="&lt;font face=&quot;Tahoma&quot; style=&quot;font-size: 20px;&quot;&gt;Satisfaction Dimension&lt;/font&gt;" style="swimlane;whiteSpace=wrap;html=1;fontFamily=Helvetica;fontSize=14;fillColor=#dae8fc;strokeColor=#6c8ebf;swimlaneFillColor=default;" vertex="1" parent="1">
          <mxGeometry x="1390" y="1180" width="280" height="250" as="geometry" />
        </mxCell>
        <mxCell id="jO-1gXQbFEy_2yiJFidG-36" value="&lt;div style=&quot;border-color: var(--border-color); font-size: 18px;&quot;&gt;&lt;font face=&quot;Tahoma&quot; style=&quot;font-size: 18px;&quot;&gt;&lt;br&gt;&lt;/font&gt;&lt;/div&gt;&lt;div style=&quot;border-color: var(--border-color); font-size: 18px;&quot;&gt;&lt;font face=&quot;AfxGx4kwYcpeZKPlNgU6&quot; style=&quot;font-size: 18px;&quot;&gt;Satisfaction Key (SK)&lt;/font&gt;&lt;/div&gt;&lt;div style=&quot;border-color: var(--border-color); font-size: 18px;&quot;&gt;&lt;span style=&quot;background-color: initial;&quot;&gt;&lt;font face=&quot;AfxGx4kwYcpeZKPlNgU6&quot; style=&quot;font-size: 18px;&quot;&gt;Personnel Problem Indicator&lt;/font&gt;&lt;/span&gt;&lt;/div&gt;&lt;div style=&quot;border-color: var(--border-color); font-size: 18px;&quot;&gt;&lt;span style=&quot;background-color: initial;&quot;&gt;&lt;font face=&quot;AfxGx4kwYcpeZKPlNgU6&quot; style=&quot;font-size: 18px;&quot;&gt;Middle Seat Indicator&lt;/font&gt;&lt;/span&gt;&lt;/div&gt;&lt;div style=&quot;border-color: var(--border-color); font-size: 18px;&quot;&gt;&lt;font face=&quot;AfxGx4kwYcpeZKPlNgU6&quot; style=&quot;font-size: 18px;&quot;&gt;Lost Luggage Indicator&lt;/font&gt;&lt;/div&gt;&lt;div style=&quot;border-color: var(--border-color); font-size: 18px;&quot;&gt;&lt;span style=&quot;background-color: initial;&quot;&gt;&lt;font face=&quot;AfxGx4kwYcpeZKPlNgU6&quot; style=&quot;font-size: 18px;&quot;&gt;Failed to Upgrade Indicator&lt;/font&gt;&lt;/span&gt;&lt;/div&gt;&lt;div style=&quot;border-color: var(--border-color); font-size: 18px;&quot;&gt;&lt;span style=&quot;background-color: initial;&quot;&gt;&lt;font face=&quot;AfxGx4kwYcpeZKPlNgU6&quot; style=&quot;font-size: 18px;&quot;&gt;Delayed Arrival Indicator&lt;/font&gt;&lt;/span&gt;&lt;/div&gt;&lt;div style=&quot;border-color: var(--border-color); font-size: 18px;&quot;&gt;&lt;span style=&quot;background-color: initial;&quot;&gt;&lt;font face=&quot;AfxGx4kwYcpeZKPlNgU6&quot; style=&quot;font-size: 18px;&quot;&gt;Airport Divert Indicator&lt;/font&gt;&lt;/span&gt;&lt;br&gt;&lt;/div&gt;" style="text;html=1;strokeColor=none;fillColor=none;align=center;verticalAlign=middle;whiteSpace=wrap;rounded=0;fontSize=14;fontFamily=Helvetica;fontColor=#141414;" vertex="1" parent="jO-1gXQbFEy_2yiJFidG-35">
          <mxGeometry x="26" y="49.5" width="228" height="151" as="geometry" />
        </mxCell>
        <mxCell id="jO-1gXQbFEy_2yiJFidG-41" style="edgeStyle=orthogonalEdgeStyle;rounded=0;orthogonalLoop=1;jettySize=auto;html=1;entryX=0.706;entryY=1.016;entryDx=0;entryDy=0;entryPerimeter=0;" edge="1" parent="1" source="jO-1gXQbFEy_2yiJFidG-19" target="jO-1gXQbFEy_2yiJFidG-30">
          <mxGeometry relative="1" as="geometry" />
        </mxCell>
        <mxCell id="jO-1gXQbFEy_2yiJFidG-44" style="edgeStyle=orthogonalEdgeStyle;rounded=0;orthogonalLoop=1;jettySize=auto;html=1;entryX=0.827;entryY=-0.003;entryDx=0;entryDy=0;entryPerimeter=0;" edge="1" parent="1" source="jO-1gXQbFEy_2yiJFidG-21" target="jO-1gXQbFEy_2yiJFidG-29">
          <mxGeometry relative="1" as="geometry" />
        </mxCell>
        <mxCell id="jO-1gXQbFEy_2yiJFidG-53" style="edgeStyle=orthogonalEdgeStyle;rounded=0;orthogonalLoop=1;jettySize=auto;html=1;entryX=0;entryY=0.75;entryDx=0;entryDy=0;" edge="1" parent="1" source="jO-1gXQbFEy_2yiJFidG-3" target="jO-1gXQbFEy_2yiJFidG-29">
          <mxGeometry relative="1" as="geometry" />
        </mxCell>
      </root>
    </mxGraphModel>
  </diagram>
</mxfile>
